<svg width="51" height="59" viewBox="0 0 51 59" fill="none" xmlns="http://www.w3.org/2000/svg">
<path fill-rule="evenodd" clip-rule="evenodd" d="M9.11557 6.96551C7.93312 6.96551 6.97999 7.91839 6.97999 9.09199L6.97999 36.367C6.97999 37.7629 7.54591 39.2591 8.74449 40.8673C9.94694 42.4807 11.6723 44.0485 13.676 45.5074C17.6855 48.4266 22.3697 50.5962 24.8727 51.6506C25.2623 51.8147 25.6779 51.8121 26.0706 51.6393C28.5736 50.5377 33.2754 48.2805 37.3045 45.3244C39.3194 43.8461 41.0559 42.272 42.2655 40.6744C43.4772 39.0738 44.02 37.6398 44.02 36.367V9.09351C44.02 7.91876 43.0657 6.96551 41.8844 6.96551H9.11557ZM1 9.09199C1 4.61775 4.63647 1 9.11557 1H41.8844C46.3647 1 50 4.62042 50 9.09351V36.367C50 39.3742 48.7203 42.0469 47.0373 44.2698C45.3522 46.4955 43.1216 48.4616 40.8475 50.1301C36.2985 53.4676 31.1341 55.931 28.4844 57.0972C26.5902 57.9309 24.4597 57.9521 22.5465 57.1462C19.8856 56.0254 14.7099 53.6455 10.1506 50.326C7.86994 48.6655 5.63364 46.6916 3.94553 44.4266C2.25355 42.1564 1 39.4373 1.00001 36.367L1 9.09199Z" fill="#FFBF00" stroke="#CD9900" stroke-linecap="round"/>
<path fill-rule="evenodd" clip-rule="evenodd" d="M47.4202 8.77018V36.4775C47.4202 45.1738 32.5617 52.4612 27.3106 54.7651C26.1453 55.2764 24.8479 55.2884 23.6746 54.7957C18.4119 52.5859 3.57812 45.5522 3.57813 36.4775L3.57812 8.76863C3.57812 5.89979 5.91678 3.57812 8.80165 3.57812H42.1967C45.0816 3.57812 47.4202 5.90133 47.4202 8.77018Z" fill="#FFBF00"/>
<path d="M25.5 15.8125C23.0965 15.8125 20.7914 16.7673 19.0918 18.4668C17.3923 20.1664 16.4375 22.4715 16.4375 24.875C16.4375 27.2785 17.3923 29.5836 19.0918 31.2832C20.7914 32.9827 23.0965 33.9375 25.5 33.9375C27.9035 33.9375 30.2086 32.9827 31.9082 31.2832C33.6077 29.5836 34.5625 27.2785 34.5625 24.875C34.5625 22.4715 33.6077 20.1664 31.9082 18.4668C30.2086 16.7673 27.9035 15.8125 25.5 15.8125ZM20.0625 40.2812V34.2946C21.6629 35.2189 23.5189 35.75 25.5 35.75C27.4088 35.7505 29.2841 35.2485 30.9375 34.2946V40.2812C30.9375 40.4416 30.895 40.5991 30.8143 40.7376C30.7336 40.8762 30.6176 40.9908 30.4781 41.0699C30.3386 41.1489 30.1806 41.1896 30.0203 41.1876C29.8599 41.1857 29.703 41.1412 29.5654 41.0588L25.5 38.6192L21.4346 41.0606C21.2969 41.1431 21.1398 41.1876 20.9793 41.1894C20.8188 41.1913 20.6607 41.1505 20.5211 41.0712C20.3816 40.992 20.2656 40.8771 20.185 40.7383C20.1044 40.5995 20.0621 40.4417 20.0625 40.2812Z" fill="#CD9900"/>
</svg>
