<svg width="36" height="36" viewBox="0 0 36 36" fill="none" xmlns="http://www.w3.org/2000/svg">
<g filter="url(#filter0_d_11004_24814)">
<rect x="4.5" y="3.5" width="27" height="27" rx="13.5" stroke="#F3F3F3" shape-rendering="crispEdges"/>
<path d="M17.9319 25.4015C18.4219 25.4015 18.8363 25.2321 19.1751 24.8933C19.5139 24.5545 19.6828 24.1406 19.6819 23.6515C19.6809 23.1625 19.512 22.7481 19.1751 22.4083C18.8381 22.0686 18.4237 21.8997 17.9319 21.9015C17.44 21.9034 17.0261 22.0728 16.6901 22.4097C16.3541 22.7467 16.1847 23.1606 16.1819 23.6515C16.1791 24.1425 16.3485 24.5569 16.6901 24.8947C17.0317 25.2326 17.4456 25.4015 17.9319 25.4015ZM16.6719 20.0115H19.2619C19.2619 19.2415 19.3496 18.6349 19.5251 18.1916C19.7005 17.7482 20.1961 17.1416 21.0119 16.3716C21.6185 15.7649 22.0969 15.1872 22.4469 14.6384C22.7969 14.0896 22.9719 13.4306 22.9719 12.6616C22.9719 11.3549 22.4935 10.3516 21.5369 9.65156C20.5802 8.95156 19.4485 8.60156 18.1419 8.60156C16.8119 8.60156 15.7329 8.95156 14.9051 9.65156C14.0772 10.3516 13.4995 11.1916 13.1719 12.1716L15.4819 13.0816C15.5985 12.6616 15.8613 12.2066 16.2701 11.7166C16.6789 11.2266 17.3028 10.9816 18.1419 10.9816C18.8885 10.9816 19.4485 11.186 19.8219 11.5948C20.1952 12.0036 20.3819 12.4525 20.3819 12.9416C20.3819 13.4082 20.2419 13.846 19.9619 14.2548C19.6819 14.6636 19.3319 15.0425 18.9119 15.3916C17.8852 16.3016 17.2552 16.9899 17.0219 17.4566C16.7885 17.9232 16.6719 18.7749 16.6719 20.0115Z" fill="black"/>
</g>
<defs>
<filter id="filter0_d_11004_24814" x="0" y="0" width="36" height="36" filterUnits="userSpaceOnUse" color-interpolation-filters="sRGB">
<feFlood flood-opacity="0" result="BackgroundImageFix"/>
<feColorMatrix in="SourceAlpha" type="matrix" values="0 0 0 0 0 0 0 0 0 0 0 0 0 0 0 0 0 0 127 0" result="hardAlpha"/>
<feOffset dy="1"/>
<feGaussianBlur stdDeviation="2"/>
<feComposite in2="hardAlpha" operator="out"/>
<feColorMatrix type="matrix" values="0 0 0 0 0.0470588 0 0 0 0 0.0470588 0 0 0 0 0.0509804 0 0 0 0.05 0"/>
<feBlend mode="normal" in2="BackgroundImageFix" result="effect1_dropShadow_11004_24814"/>
<feBlend mode="normal" in="SourceGraphic" in2="effect1_dropShadow_11004_24814" result="shape"/>
</filter>
</defs>
</svg>
