<svg width="14" height="13" viewBox="0 0 14 13" fill="none" xmlns="http://www.w3.org/2000/svg">
<path d="M7 3.33203C7 3.33203 7 3.33203 6.49333 2.66536C5.90667 1.89203 5.04 1.33203 4 1.33203C2.34 1.33203 1 2.67203 1 4.33203C1 4.95203 1.18667 5.52536 1.50667 5.9987C2.04667 6.80536 7 11.9987 7 11.9987M7 3.33203C7 3.33203 7 3.33203 7.50667 2.66536C8.09333 1.89203 8.96 1.33203 10 1.33203C11.66 1.33203 13 2.67203 13 4.33203C13 4.95203 12.8133 5.52536 12.4933 5.9987C11.9533 6.80536 7 11.9987 7 11.9987" fill="black" fill-opacity="0.4"/>
<path d="M7 3.33203C7 3.33203 7 3.33203 6.49333 2.66536C5.90667 1.89203 5.04 1.33203 4 1.33203C2.34 1.33203 1 2.67203 1 4.33203C1 4.95203 1.18667 5.52536 1.50667 5.9987C2.04667 6.80536 7 11.9987 7 11.9987C7 11.9987 11.9533 6.80536 12.4933 5.9987C12.8133 5.52536 13 4.95203 13 4.33203C13 2.67203 11.66 1.33203 10 1.33203C8.96 1.33203 8.09333 1.89203 7.50667 2.66536C7 3.33203 7 3.33203 7 3.33203Z" stroke="white" stroke-linecap="round" stroke-linejoin="round"/>
</svg>
